<mxfile host="Electron" modified="2024-10-04T16:15:16.903Z" agent="Mozilla/5.0 (Windows NT 10.0; Win64; x64) AppleWebKit/537.36 (KHTML, like Gecko) draw.io/24.6.4 Chrome/124.0.6367.207 Electron/30.0.6 Safari/537.36" etag="A4febJZiR2UNOI8tTl3d" version="24.6.4" type="device">
  <diagram name="Page-1" id="Uf4Hq2QLtJBaCoVlEJZl">
    <mxGraphModel dx="987" dy="610" grid="1" gridSize="10" guides="1" tooltips="1" connect="1" arrows="1" fold="1" page="1" pageScale="1" pageWidth="827" pageHeight="1169" math="0" shadow="0">
      <root>
        <mxCell id="0" />
        <mxCell id="1" parent="0" />
        <mxCell id="joeU69iwWXaMl8EMGQHS-52" value="" style="rounded=0;whiteSpace=wrap;html=1;" vertex="1" parent="1">
          <mxGeometry x="10" y="10" width="810" height="1400" as="geometry" />
        </mxCell>
        <mxCell id="joeU69iwWXaMl8EMGQHS-1" value="END" style="strokeWidth=2;html=1;shape=mxgraph.flowchart.start_1;whiteSpace=wrap;" vertex="1" parent="1">
          <mxGeometry x="314" y="1310" width="100" height="60" as="geometry" />
        </mxCell>
        <mxCell id="joeU69iwWXaMl8EMGQHS-2" value="START" style="strokeWidth=2;html=1;shape=mxgraph.flowchart.start_1;whiteSpace=wrap;" vertex="1" parent="1">
          <mxGeometry x="330" y="40" width="100" height="60" as="geometry" />
        </mxCell>
        <mxCell id="joeU69iwWXaMl8EMGQHS-4" value="Masukkan konfirmasi&amp;nbsp;&lt;div&gt;member&lt;/div&gt;" style="shape=parallelogram;html=1;strokeWidth=2;perimeter=parallelogramPerimeter;whiteSpace=wrap;rounded=1;arcSize=12;size=0.23;" vertex="1" parent="1">
          <mxGeometry x="280" y="140" width="210" height="60" as="geometry" />
        </mxCell>
        <mxCell id="joeU69iwWXaMl8EMGQHS-5" value="Konfirmasi&lt;div&gt;member&lt;/div&gt;" style="rounded=1;whiteSpace=wrap;html=1;absoluteArcSize=1;arcSize=14;strokeWidth=2;" vertex="1" parent="1">
          <mxGeometry x="334" y="250" width="100" height="100" as="geometry" />
        </mxCell>
        <mxCell id="joeU69iwWXaMl8EMGQHS-6" value="validasi&amp;nbsp;&lt;div&gt;member&lt;/div&gt;" style="strokeWidth=2;html=1;shape=mxgraph.flowchart.decision;whiteSpace=wrap;" vertex="1" parent="1">
          <mxGeometry x="335" y="400" width="100" height="100" as="geometry" />
        </mxCell>
        <mxCell id="joeU69iwWXaMl8EMGQHS-9" value="mendapat diskon&lt;div&gt;member&lt;/div&gt;&lt;div&gt;10%&lt;/div&gt;" style="rounded=1;whiteSpace=wrap;html=1;absoluteArcSize=1;arcSize=14;strokeWidth=2;" vertex="1" parent="1">
          <mxGeometry x="580" y="400" width="100" height="100" as="geometry" />
        </mxCell>
        <mxCell id="joeU69iwWXaMl8EMGQHS-10" value="Masukkan Total&lt;div&gt;Belanja&lt;/div&gt;" style="shape=parallelogram;html=1;strokeWidth=2;perimeter=parallelogramPerimeter;whiteSpace=wrap;rounded=1;arcSize=12;size=0.23;" vertex="1" parent="1">
          <mxGeometry x="525" y="570" width="210" height="60" as="geometry" />
        </mxCell>
        <mxCell id="joeU69iwWXaMl8EMGQHS-11" value="Menghitung total&lt;div&gt;belanja&lt;/div&gt;" style="rounded=1;whiteSpace=wrap;html=1;absoluteArcSize=1;arcSize=14;strokeWidth=2;" vertex="1" parent="1">
          <mxGeometry x="580" y="680" width="100" height="100" as="geometry" />
        </mxCell>
        <mxCell id="joeU69iwWXaMl8EMGQHS-13" value="validasi&lt;div&gt;total&amp;nbsp;&lt;/div&gt;&lt;div&gt;belanja&lt;/div&gt;" style="strokeWidth=2;html=1;shape=mxgraph.flowchart.decision;whiteSpace=wrap;" vertex="1" parent="1">
          <mxGeometry x="570" y="820" width="100" height="100" as="geometry" />
        </mxCell>
        <mxCell id="joeU69iwWXaMl8EMGQHS-14" value="Masukkan Total&lt;div&gt;Belanja&lt;/div&gt;" style="shape=parallelogram;html=1;strokeWidth=2;perimeter=parallelogramPerimeter;whiteSpace=wrap;rounded=1;arcSize=12;size=0.23;" vertex="1" parent="1">
          <mxGeometry x="60" y="420" width="210" height="60" as="geometry" />
        </mxCell>
        <mxCell id="joeU69iwWXaMl8EMGQHS-15" value="Menghitung total&lt;div&gt;belanja&lt;/div&gt;" style="rounded=1;whiteSpace=wrap;html=1;absoluteArcSize=1;arcSize=14;strokeWidth=2;" vertex="1" parent="1">
          <mxGeometry x="100" y="520" width="100" height="100" as="geometry" />
        </mxCell>
        <mxCell id="joeU69iwWXaMl8EMGQHS-16" value="validasi&lt;div&gt;total&amp;nbsp;&lt;/div&gt;&lt;div&gt;belanja&lt;/div&gt;" style="strokeWidth=2;html=1;shape=mxgraph.flowchart.decision;whiteSpace=wrap;" vertex="1" parent="1">
          <mxGeometry x="100" y="660" width="100" height="100" as="geometry" />
        </mxCell>
        <mxCell id="joeU69iwWXaMl8EMGQHS-17" value="Mendapatkan diskon 10%" style="rounded=1;whiteSpace=wrap;html=1;absoluteArcSize=1;arcSize=14;strokeWidth=2;" vertex="1" parent="1">
          <mxGeometry x="414" y="750" width="100" height="100" as="geometry" />
        </mxCell>
        <mxCell id="joeU69iwWXaMl8EMGQHS-18" value="Mendapatkan diskon 5%" style="rounded=1;whiteSpace=wrap;html=1;absoluteArcSize=1;arcSize=14;strokeWidth=2;" vertex="1" parent="1">
          <mxGeometry x="440" y="960" width="100" height="100" as="geometry" />
        </mxCell>
        <mxCell id="joeU69iwWXaMl8EMGQHS-19" value="Tdak ada diskon" style="rounded=1;whiteSpace=wrap;html=1;absoluteArcSize=1;arcSize=14;strokeWidth=2;" vertex="1" parent="1">
          <mxGeometry x="660" y="1000" width="100" height="100" as="geometry" />
        </mxCell>
        <mxCell id="joeU69iwWXaMl8EMGQHS-20" value="Tdak ada diskon" style="rounded=1;whiteSpace=wrap;html=1;absoluteArcSize=1;arcSize=14;strokeWidth=2;" vertex="1" parent="1">
          <mxGeometry x="110" y="820" width="100" height="100" as="geometry" />
        </mxCell>
        <mxCell id="joeU69iwWXaMl8EMGQHS-21" value="Mendapatkan diskon 10%" style="rounded=1;whiteSpace=wrap;html=1;absoluteArcSize=1;arcSize=14;strokeWidth=2;" vertex="1" parent="1">
          <mxGeometry x="275" y="660" width="100" height="100" as="geometry" />
        </mxCell>
        <mxCell id="joeU69iwWXaMl8EMGQHS-22" value="" style="endArrow=classic;html=1;rounded=0;exitX=0.5;exitY=1;exitDx=0;exitDy=0;exitPerimeter=0;" edge="1" parent="1" source="joeU69iwWXaMl8EMGQHS-2" target="joeU69iwWXaMl8EMGQHS-4">
          <mxGeometry width="50" height="50" relative="1" as="geometry">
            <mxPoint x="360" y="280" as="sourcePoint" />
            <mxPoint x="410" y="230" as="targetPoint" />
          </mxGeometry>
        </mxCell>
        <mxCell id="joeU69iwWXaMl8EMGQHS-23" value="" style="endArrow=classic;html=1;rounded=0;entryX=0.5;entryY=0;entryDx=0;entryDy=0;exitX=0.5;exitY=1;exitDx=0;exitDy=0;" edge="1" parent="1" source="joeU69iwWXaMl8EMGQHS-4" target="joeU69iwWXaMl8EMGQHS-5">
          <mxGeometry width="50" height="50" relative="1" as="geometry">
            <mxPoint x="360" y="230" as="sourcePoint" />
            <mxPoint x="410" y="180" as="targetPoint" />
          </mxGeometry>
        </mxCell>
        <mxCell id="joeU69iwWXaMl8EMGQHS-24" value="" style="endArrow=classic;html=1;rounded=0;exitX=0.5;exitY=1;exitDx=0;exitDy=0;entryX=0.5;entryY=0;entryDx=0;entryDy=0;entryPerimeter=0;" edge="1" parent="1" source="joeU69iwWXaMl8EMGQHS-5" target="joeU69iwWXaMl8EMGQHS-6">
          <mxGeometry width="50" height="50" relative="1" as="geometry">
            <mxPoint x="360" y="420" as="sourcePoint" />
            <mxPoint x="410" y="370" as="targetPoint" />
          </mxGeometry>
        </mxCell>
        <mxCell id="joeU69iwWXaMl8EMGQHS-25" value="" style="endArrow=classic;html=1;rounded=0;entryX=0;entryY=0.5;entryDx=0;entryDy=0;" edge="1" parent="1" source="joeU69iwWXaMl8EMGQHS-6" target="joeU69iwWXaMl8EMGQHS-9">
          <mxGeometry width="50" height="50" relative="1" as="geometry">
            <mxPoint x="360" y="420" as="sourcePoint" />
            <mxPoint x="410" y="370" as="targetPoint" />
          </mxGeometry>
        </mxCell>
        <mxCell id="joeU69iwWXaMl8EMGQHS-26" value="Member" style="text;html=1;align=center;verticalAlign=middle;resizable=0;points=[];autosize=1;strokeColor=none;fillColor=none;" vertex="1" parent="1">
          <mxGeometry x="414" y="420" width="70" height="30" as="geometry" />
        </mxCell>
        <mxCell id="joeU69iwWXaMl8EMGQHS-27" value="" style="endArrow=classic;html=1;rounded=0;entryX=1;entryY=0.5;entryDx=0;entryDy=0;exitX=0;exitY=0.5;exitDx=0;exitDy=0;exitPerimeter=0;" edge="1" parent="1" source="joeU69iwWXaMl8EMGQHS-6" target="joeU69iwWXaMl8EMGQHS-14">
          <mxGeometry width="50" height="50" relative="1" as="geometry">
            <mxPoint x="360" y="420" as="sourcePoint" />
            <mxPoint x="410" y="370" as="targetPoint" />
          </mxGeometry>
        </mxCell>
        <mxCell id="joeU69iwWXaMl8EMGQHS-28" value="Bukan&amp;nbsp;&lt;div&gt;Member&lt;/div&gt;" style="text;html=1;align=center;verticalAlign=middle;resizable=0;points=[];autosize=1;strokeColor=none;fillColor=none;" vertex="1" parent="1">
          <mxGeometry x="275" y="415" width="70" height="40" as="geometry" />
        </mxCell>
        <mxCell id="joeU69iwWXaMl8EMGQHS-29" value="" style="endArrow=classic;html=1;rounded=0;entryX=0.5;entryY=0;entryDx=0;entryDy=0;exitX=0.5;exitY=1;exitDx=0;exitDy=0;" edge="1" parent="1" source="joeU69iwWXaMl8EMGQHS-9" target="joeU69iwWXaMl8EMGQHS-10">
          <mxGeometry width="50" height="50" relative="1" as="geometry">
            <mxPoint x="360" y="710" as="sourcePoint" />
            <mxPoint x="410" y="660" as="targetPoint" />
          </mxGeometry>
        </mxCell>
        <mxCell id="joeU69iwWXaMl8EMGQHS-30" value="" style="endArrow=classic;html=1;rounded=0;exitX=0.5;exitY=1;exitDx=0;exitDy=0;" edge="1" parent="1" source="joeU69iwWXaMl8EMGQHS-10">
          <mxGeometry width="50" height="50" relative="1" as="geometry">
            <mxPoint x="629.52" y="630" as="sourcePoint" />
            <mxPoint x="630" y="680" as="targetPoint" />
          </mxGeometry>
        </mxCell>
        <mxCell id="joeU69iwWXaMl8EMGQHS-31" value="" style="endArrow=classic;html=1;rounded=0;entryX=0.5;entryY=0;entryDx=0;entryDy=0;entryPerimeter=0;exitX=0.399;exitY=1.026;exitDx=0;exitDy=0;exitPerimeter=0;" edge="1" parent="1" source="joeU69iwWXaMl8EMGQHS-11" target="joeU69iwWXaMl8EMGQHS-13">
          <mxGeometry width="50" height="50" relative="1" as="geometry">
            <mxPoint x="360" y="710" as="sourcePoint" />
            <mxPoint x="410" y="660" as="targetPoint" />
          </mxGeometry>
        </mxCell>
        <mxCell id="joeU69iwWXaMl8EMGQHS-32" value="" style="endArrow=classic;html=1;rounded=0;entryX=0.5;entryY=0;entryDx=0;entryDy=0;exitX=0.75;exitY=0.814;exitDx=0;exitDy=0;exitPerimeter=0;" edge="1" parent="1" source="joeU69iwWXaMl8EMGQHS-13" target="joeU69iwWXaMl8EMGQHS-19">
          <mxGeometry width="50" height="50" relative="1" as="geometry">
            <mxPoint x="619.52" y="890" as="sourcePoint" />
            <mxPoint x="619.52" y="960" as="targetPoint" />
          </mxGeometry>
        </mxCell>
        <mxCell id="joeU69iwWXaMl8EMGQHS-33" value="" style="endArrow=classic;html=1;rounded=0;entryX=1;entryY=0.25;entryDx=0;entryDy=0;exitX=0.24;exitY=0.799;exitDx=0;exitDy=0;exitPerimeter=0;" edge="1" parent="1" source="joeU69iwWXaMl8EMGQHS-13" target="joeU69iwWXaMl8EMGQHS-18">
          <mxGeometry width="50" height="50" relative="1" as="geometry">
            <mxPoint x="600" y="920" as="sourcePoint" />
            <mxPoint x="600" y="990" as="targetPoint" />
          </mxGeometry>
        </mxCell>
        <mxCell id="joeU69iwWXaMl8EMGQHS-34" value="" style="endArrow=classic;html=1;rounded=0;entryX=1;entryY=0.5;entryDx=0;entryDy=0;exitX=0.201;exitY=0.258;exitDx=0;exitDy=0;exitPerimeter=0;" edge="1" parent="1" source="joeU69iwWXaMl8EMGQHS-13" target="joeU69iwWXaMl8EMGQHS-17">
          <mxGeometry width="50" height="50" relative="1" as="geometry">
            <mxPoint x="560" y="835" as="sourcePoint" />
            <mxPoint x="560" y="905" as="targetPoint" />
          </mxGeometry>
        </mxCell>
        <mxCell id="joeU69iwWXaMl8EMGQHS-35" value="kurang dari&lt;div&gt;300000&lt;/div&gt;" style="text;html=1;align=center;verticalAlign=middle;resizable=0;points=[];autosize=1;strokeColor=none;fillColor=none;" vertex="1" parent="1">
          <mxGeometry x="640" y="880" width="80" height="40" as="geometry" />
        </mxCell>
        <mxCell id="joeU69iwWXaMl8EMGQHS-36" value="lebih sama&amp;nbsp;&lt;div&gt;dengan&lt;/div&gt;&lt;div&gt;300000&lt;/div&gt;" style="text;html=1;align=center;verticalAlign=middle;resizable=0;points=[];autosize=1;strokeColor=none;fillColor=none;" vertex="1" parent="1">
          <mxGeometry x="514" y="880" width="80" height="60" as="geometry" />
        </mxCell>
        <mxCell id="joeU69iwWXaMl8EMGQHS-37" value="lebih sama&lt;div&gt;dengan&lt;/div&gt;&lt;div&gt;500000&lt;/div&gt;" style="text;html=1;align=center;verticalAlign=middle;resizable=0;points=[];autosize=1;strokeColor=none;fillColor=none;" vertex="1" parent="1">
          <mxGeometry x="514" y="780" width="80" height="60" as="geometry" />
        </mxCell>
        <mxCell id="joeU69iwWXaMl8EMGQHS-38" value="" style="endArrow=classic;html=1;rounded=0;exitX=0.446;exitY=1.04;exitDx=0;exitDy=0;exitPerimeter=0;entryX=0.5;entryY=0;entryDx=0;entryDy=0;" edge="1" parent="1" source="joeU69iwWXaMl8EMGQHS-14" target="joeU69iwWXaMl8EMGQHS-15">
          <mxGeometry width="50" height="50" relative="1" as="geometry">
            <mxPoint x="360" y="670" as="sourcePoint" />
            <mxPoint x="410" y="620" as="targetPoint" />
          </mxGeometry>
        </mxCell>
        <mxCell id="joeU69iwWXaMl8EMGQHS-39" value="" style="endArrow=classic;html=1;rounded=0;exitX=0.5;exitY=1;exitDx=0;exitDy=0;entryX=0.5;entryY=0;entryDx=0;entryDy=0;entryPerimeter=0;" edge="1" parent="1" source="joeU69iwWXaMl8EMGQHS-15" target="joeU69iwWXaMl8EMGQHS-16">
          <mxGeometry width="50" height="50" relative="1" as="geometry">
            <mxPoint x="360" y="760" as="sourcePoint" />
            <mxPoint x="410" y="710" as="targetPoint" />
          </mxGeometry>
        </mxCell>
        <mxCell id="joeU69iwWXaMl8EMGQHS-40" value="" style="endArrow=classic;html=1;rounded=0;exitX=1;exitY=0.5;exitDx=0;exitDy=0;exitPerimeter=0;" edge="1" parent="1" source="joeU69iwWXaMl8EMGQHS-16">
          <mxGeometry width="50" height="50" relative="1" as="geometry">
            <mxPoint x="360" y="760" as="sourcePoint" />
            <mxPoint x="270" y="710" as="targetPoint" />
          </mxGeometry>
        </mxCell>
        <mxCell id="joeU69iwWXaMl8EMGQHS-41" value="" style="endArrow=classic;html=1;rounded=0;exitX=0.5;exitY=1;exitDx=0;exitDy=0;exitPerimeter=0;entryX=0.413;entryY=-0.031;entryDx=0;entryDy=0;entryPerimeter=0;" edge="1" parent="1" source="joeU69iwWXaMl8EMGQHS-16" target="joeU69iwWXaMl8EMGQHS-20">
          <mxGeometry width="50" height="50" relative="1" as="geometry">
            <mxPoint x="360" y="760" as="sourcePoint" />
            <mxPoint x="410" y="710" as="targetPoint" />
          </mxGeometry>
        </mxCell>
        <mxCell id="joeU69iwWXaMl8EMGQHS-42" value="diatas sama&lt;div&gt;dengan&lt;/div&gt;&lt;div&gt;500000&lt;/div&gt;" style="text;html=1;align=center;verticalAlign=middle;resizable=0;points=[];autosize=1;strokeColor=none;fillColor=none;" vertex="1" parent="1">
          <mxGeometry x="180" y="660" width="90" height="60" as="geometry" />
        </mxCell>
        <mxCell id="joeU69iwWXaMl8EMGQHS-43" value="dibawah&amp;nbsp;&lt;div&gt;500000&lt;/div&gt;" style="text;html=1;align=center;verticalAlign=middle;resizable=0;points=[];autosize=1;strokeColor=none;fillColor=none;" vertex="1" parent="1">
          <mxGeometry x="150" y="760" width="70" height="40" as="geometry" />
        </mxCell>
        <mxCell id="joeU69iwWXaMl8EMGQHS-44" value="Menghitung&lt;div&gt;TOTAL&lt;/div&gt;&lt;div&gt;BAYAR&lt;/div&gt;" style="rounded=1;whiteSpace=wrap;html=1;absoluteArcSize=1;arcSize=14;strokeWidth=2;" vertex="1" parent="1">
          <mxGeometry x="314" y="1160" width="100" height="100" as="geometry" />
        </mxCell>
        <mxCell id="joeU69iwWXaMl8EMGQHS-46" value="" style="endArrow=classic;html=1;rounded=0;exitX=0.5;exitY=1;exitDx=0;exitDy=0;entryX=0.003;entryY=0.409;entryDx=0;entryDy=0;entryPerimeter=0;" edge="1" parent="1" source="joeU69iwWXaMl8EMGQHS-20" target="joeU69iwWXaMl8EMGQHS-44">
          <mxGeometry width="50" height="50" relative="1" as="geometry">
            <mxPoint x="360" y="990" as="sourcePoint" />
            <mxPoint x="410" y="940" as="targetPoint" />
          </mxGeometry>
        </mxCell>
        <mxCell id="joeU69iwWXaMl8EMGQHS-47" value="" style="endArrow=classic;html=1;rounded=0;exitX=0.25;exitY=1;exitDx=0;exitDy=0;entryX=0.087;entryY=0.028;entryDx=0;entryDy=0;entryPerimeter=0;" edge="1" parent="1" source="joeU69iwWXaMl8EMGQHS-21" target="joeU69iwWXaMl8EMGQHS-44">
          <mxGeometry width="50" height="50" relative="1" as="geometry">
            <mxPoint x="170" y="930" as="sourcePoint" />
            <mxPoint x="324" y="1211" as="targetPoint" />
          </mxGeometry>
        </mxCell>
        <mxCell id="joeU69iwWXaMl8EMGQHS-48" value="" style="endArrow=classic;html=1;rounded=0;exitX=0.108;exitY=1.011;exitDx=0;exitDy=0;entryX=0.5;entryY=0;entryDx=0;entryDy=0;exitPerimeter=0;" edge="1" parent="1" source="joeU69iwWXaMl8EMGQHS-17" target="joeU69iwWXaMl8EMGQHS-44">
          <mxGeometry width="50" height="50" relative="1" as="geometry">
            <mxPoint x="180" y="940" as="sourcePoint" />
            <mxPoint x="334" y="1221" as="targetPoint" />
          </mxGeometry>
        </mxCell>
        <mxCell id="joeU69iwWXaMl8EMGQHS-49" value="" style="endArrow=classic;html=1;rounded=0;exitX=0.404;exitY=1.052;exitDx=0;exitDy=0;exitPerimeter=0;" edge="1" parent="1" source="joeU69iwWXaMl8EMGQHS-18" target="joeU69iwWXaMl8EMGQHS-44">
          <mxGeometry width="50" height="50" relative="1" as="geometry">
            <mxPoint x="190" y="950" as="sourcePoint" />
            <mxPoint x="344" y="1231" as="targetPoint" />
          </mxGeometry>
        </mxCell>
        <mxCell id="joeU69iwWXaMl8EMGQHS-50" value="" style="endArrow=classic;html=1;rounded=0;exitX=0;exitY=0.5;exitDx=0;exitDy=0;entryX=1;entryY=0.5;entryDx=0;entryDy=0;" edge="1" parent="1" source="joeU69iwWXaMl8EMGQHS-19" target="joeU69iwWXaMl8EMGQHS-44">
          <mxGeometry width="50" height="50" relative="1" as="geometry">
            <mxPoint x="200" y="960" as="sourcePoint" />
            <mxPoint x="354" y="1241" as="targetPoint" />
          </mxGeometry>
        </mxCell>
        <mxCell id="joeU69iwWXaMl8EMGQHS-51" value="" style="endArrow=classic;html=1;rounded=0;exitX=0.5;exitY=1;exitDx=0;exitDy=0;entryX=0.5;entryY=0;entryDx=0;entryDy=0;entryPerimeter=0;" edge="1" parent="1" source="joeU69iwWXaMl8EMGQHS-44" target="joeU69iwWXaMl8EMGQHS-1">
          <mxGeometry width="50" height="50" relative="1" as="geometry">
            <mxPoint x="360" y="1280" as="sourcePoint" />
            <mxPoint x="410" y="1230" as="targetPoint" />
          </mxGeometry>
        </mxCell>
      </root>
    </mxGraphModel>
  </diagram>
</mxfile>
